<svg xmlns="http://www.w3.org/2000/svg" xmlns:xlink="http://www.w3.org/1999/xlink" width="500" zoomAndPan="magnify" viewBox="0 0 375 374.999991" height="500" preserveAspectRatio="xMidYMid meet" version="1.0"><defs><g/><clipPath id="f36334edac"><path d="M 37.5 37.5 L 337.5 37.5 L 337.5 337.5 L 37.5 337.5 Z M 37.5 37.5 " clip-rule="nonzero"/></clipPath><clipPath id="c752f099e5"><path d="M 187.5 37.5 C 104.65625 37.5 37.5 104.65625 37.5 187.5 C 37.5 270.34375 104.65625 337.5 187.5 337.5 C 270.34375 337.5 337.5 270.34375 337.5 187.5 C 337.5 104.65625 270.34375 37.5 187.5 37.5 Z M 187.5 37.5 " clip-rule="nonzero"/></clipPath></defs><g clip-path="url(#f36334edac)"><g clip-path="url(#c752f099e5)"><path fill="#000000" d="M 37.5 37.5 L 337.5 37.5 L 337.5 337.5 L 37.5 337.5 Z M 37.5 37.5 " fill-opacity="1" fill-rule="nonzero"/></g></g><g fill="#ffffff" fill-opacity="1"><g transform="translate(88.981573, 279.179562)"><g><path d="M 176.609375 -20.171875 C 178.929688 -16.359375 181.171875 -13.328125 183.328125 -11.078125 C 185.492188 -8.835938 188.316406 -6.804688 191.796875 -4.984375 L 191.796875 0 C 177.847656 -0.5 162.90625 -0.75 146.96875 -0.75 C 134.675781 -0.75 122.800781 -0.5 111.34375 0 L 111.34375 -4.984375 C 116.65625 -5.316406 120.347656 -5.769531 122.421875 -6.34375 C 124.503906 -6.925781 125.546875 -8.050781 125.546875 -9.71875 C 125.546875 -11.375 124.710938 -13.53125 123.046875 -16.1875 L 86.9375 -77.21875 C 84.613281 -81.207031 82.660156 -83.945312 81.078125 -85.4375 C 79.503906 -86.9375 77.550781 -87.847656 75.21875 -88.171875 L 75.21875 -26.40625 C 75.21875 -20.09375 75.675781 -15.523438 76.59375 -12.703125 C 77.507812 -9.878906 79.128906 -7.96875 81.453125 -6.96875 C 83.773438 -5.976562 87.59375 -5.316406 92.90625 -4.984375 L 92.90625 0 C 83.28125 -0.5 69.414062 -0.75 51.3125 -0.75 C 31.21875 -0.75 16.4375 -0.5 6.96875 0 L 6.96875 -4.984375 C 12.289062 -5.316406 16.15625 -5.976562 18.5625 -6.96875 C 20.96875 -7.96875 22.582031 -9.878906 23.40625 -12.703125 C 24.238281 -15.523438 24.65625 -20.09375 24.65625 -26.40625 L 24.65625 -149.953125 C 24.65625 -156.265625 24.195312 -160.832031 23.28125 -163.65625 C 22.375 -166.476562 20.757812 -168.382812 18.4375 -169.375 C 16.113281 -170.375 12.289062 -171.039062 6.96875 -171.375 L 6.96875 -176.359375 C 16.4375 -175.859375 31.21875 -175.609375 51.3125 -175.609375 C 69.25 -175.609375 83.113281 -175.859375 92.90625 -176.359375 L 92.90625 -171.375 C 87.59375 -171.039062 83.734375 -170.375 81.328125 -169.375 C 78.921875 -168.382812 77.300781 -166.476562 76.46875 -163.65625 C 75.632812 -160.832031 75.21875 -156.265625 75.21875 -149.953125 L 75.21875 -93.65625 C 81.863281 -94.15625 88.34375 -96.644531 94.65625 -101.125 C 100.96875 -105.613281 108.691406 -113.003906 117.828125 -123.296875 L 126.296875 -132.765625 C 133.597656 -141.066406 137.25 -148.539062 137.25 -155.1875 C 137.25 -160 135.335938 -163.859375 131.515625 -166.765625 C 127.703125 -169.671875 122.804688 -171.289062 116.828125 -171.625 L 116.828125 -176.359375 C 130.773438 -175.859375 144.804688 -175.609375 158.921875 -175.609375 C 169.046875 -175.609375 177.429688 -175.859375 184.078125 -176.359375 L 184.078125 -171.625 C 169.628906 -167.800781 156.015625 -158.664062 143.234375 -144.21875 L 118.8125 -116.578125 Z M 176.609375 -20.171875 "/></g></g></g><g fill="#000000" fill-opacity="1"><g transform="translate(141.761275, 273.184641)"><g><path d="M -1.296875 -11.34375 C -1.046875 -11.488281 -0.847656 -11.628906 -0.703125 -11.765625 C -0.566406 -11.910156 -0.4375 -12.09375 -0.3125 -12.3125 L 0 -12.3125 C -0.03125 -11.414062 -0.046875 -10.457031 -0.046875 -9.4375 C -0.046875 -8.644531 -0.03125 -7.882812 0 -7.15625 L -0.3125 -7.15625 C -0.34375 -7.488281 -0.375 -7.722656 -0.40625 -7.859375 C -0.445312 -7.992188 -0.519531 -8.0625 -0.625 -8.0625 C -0.726562 -8.0625 -0.867188 -8.007812 -1.046875 -7.90625 L -4.953125 -5.578125 C -5.210938 -5.429688 -5.390625 -5.304688 -5.484375 -5.203125 C -5.578125 -5.109375 -5.632812 -4.984375 -5.65625 -4.828125 L -1.703125 -4.828125 C -1.296875 -4.828125 -1 -4.859375 -0.8125 -4.921875 C -0.632812 -4.984375 -0.515625 -5.085938 -0.453125 -5.234375 C -0.390625 -5.378906 -0.34375 -5.625 -0.3125 -5.96875 L 0 -5.96875 C -0.03125 -5.351562 -0.046875 -4.460938 -0.046875 -3.296875 C -0.046875 -2.003906 -0.03125 -1.054688 0 -0.453125 L -0.3125 -0.453125 C -0.34375 -0.785156 -0.390625 -1.03125 -0.453125 -1.1875 C -0.515625 -1.34375 -0.632812 -1.445312 -0.8125 -1.5 C -1 -1.550781 -1.296875 -1.578125 -1.703125 -1.578125 L -9.625 -1.578125 C -10.03125 -1.578125 -10.320312 -1.546875 -10.5 -1.484375 C -10.6875 -1.429688 -10.8125 -1.328125 -10.875 -1.171875 C -10.9375 -1.023438 -10.984375 -0.785156 -11.015625 -0.453125 L -11.328125 -0.453125 C -11.296875 -1.054688 -11.28125 -2.003906 -11.28125 -3.296875 C -11.28125 -4.453125 -11.296875 -5.34375 -11.328125 -5.96875 L -11.015625 -5.96875 C -10.984375 -5.625 -10.9375 -5.375 -10.875 -5.21875 C -10.8125 -5.0625 -10.6875 -4.957031 -10.5 -4.90625 C -10.320312 -4.851562 -10.03125 -4.828125 -9.625 -4.828125 L -6.015625 -4.828125 C -6.046875 -5.253906 -6.203125 -5.671875 -6.484375 -6.078125 C -6.773438 -6.484375 -7.253906 -6.976562 -7.921875 -7.5625 L -8.53125 -8.109375 C -9.0625 -8.578125 -9.539062 -8.8125 -9.96875 -8.8125 C -10.28125 -8.8125 -10.523438 -8.6875 -10.703125 -8.4375 C -10.890625 -8.195312 -11 -7.882812 -11.03125 -7.5 L -11.328125 -7.5 C -11.296875 -8.394531 -11.28125 -9.296875 -11.28125 -10.203125 C -11.28125 -10.859375 -11.296875 -11.398438 -11.328125 -11.828125 L -11.03125 -11.828125 C -10.78125 -10.898438 -10.191406 -10.023438 -9.265625 -9.203125 L -7.484375 -7.625 Z M -1.296875 -11.34375 "/></g></g></g><g fill="#000000" fill-opacity="1"><g transform="translate(141.761275, 261.123542)"><g><path d="M -1.515625 -5.328125 C -1.515625 -6.109375 -1.875 -6.753906 -2.59375 -7.265625 L -2.5 -7.53125 C -1.75 -7.300781 -1.109375 -6.90625 -0.578125 -6.34375 C -0.046875 -5.78125 0.21875 -5.0625 0.21875 -4.1875 C 0.21875 -3.070312 -0.125 -2.175781 -0.8125 -1.5 C -1.507812 -0.832031 -2.617188 -0.5 -4.140625 -0.5 C -5.609375 -0.5 -6.707031 -0.875 -7.4375 -1.625 C -8.164062 -2.375 -8.53125 -3.367188 -8.53125 -4.609375 C -8.53125 -6.617188 -7.332031 -7.625 -4.9375 -7.625 L -4.9375 -3.5 C -4.8125 -3.488281 -4.625 -3.484375 -4.375 -3.484375 C -3.34375 -3.484375 -2.609375 -3.660156 -2.171875 -4.015625 C -1.734375 -4.378906 -1.515625 -4.816406 -1.515625 -5.328125 Z M -8.15625 -4.5 C -8.15625 -3.894531 -7.1875 -3.539062 -5.25 -3.4375 L -5.25 -5.296875 C -6.101562 -5.304688 -6.800781 -5.242188 -7.34375 -5.109375 C -7.882812 -4.972656 -8.15625 -4.769531 -8.15625 -4.5 Z M -8.15625 -4.5 "/></g></g></g><g fill="#000000" fill-opacity="1"><g transform="translate(141.761275, 253.077476)"><g><path d="M -8.53125 -6.65625 C -8.53125 -7.507812 -8.316406 -8.113281 -7.890625 -8.46875 C -7.691406 -8.625 -7.429688 -8.738281 -7.109375 -8.8125 C -6.785156 -8.882812 -6.359375 -8.921875 -5.828125 -8.921875 L -1.484375 -8.921875 C -1.046875 -8.921875 -0.742188 -8.988281 -0.578125 -9.125 C -0.421875 -9.257812 -0.34375 -9.492188 -0.34375 -9.828125 L 0 -9.828125 C -0.0390625 -8.671875 -0.0625 -7.921875 -0.0625 -7.578125 C -0.0625 -7.222656 -0.0390625 -6.46875 0 -5.3125 L -0.34375 -5.3125 C -0.34375 -5.59375 -0.421875 -5.785156 -0.578125 -5.890625 C -0.742188 -5.992188 -1.046875 -6.046875 -1.484375 -6.046875 L -6.6875 -6.046875 C -7.03125 -6.046875 -7.285156 -5.984375 -7.453125 -5.859375 C -7.617188 -5.742188 -7.703125 -5.546875 -7.703125 -5.265625 C -7.703125 -4.953125 -7.59375 -4.679688 -7.375 -4.453125 C -7.15625 -4.222656 -6.878906 -4.109375 -6.546875 -4.109375 L -1.484375 -4.109375 C -1.046875 -4.109375 -0.742188 -4.160156 -0.578125 -4.265625 C -0.421875 -4.378906 -0.34375 -4.570312 -0.34375 -4.84375 L 0 -4.84375 C -0.0390625 -3.78125 -0.0625 -3.078125 -0.0625 -2.734375 C -0.0625 -2.367188 -0.0390625 -1.570312 0 -0.34375 L -0.34375 -0.34375 C -0.34375 -0.664062 -0.421875 -0.894531 -0.578125 -1.03125 C -0.742188 -1.164062 -1.046875 -1.234375 -1.484375 -1.234375 L -6.5625 -1.234375 C -7.050781 -1.234375 -7.40625 -1.164062 -7.625 -1.03125 C -7.851562 -0.894531 -7.96875 -0.664062 -7.96875 -0.34375 L -8.296875 -0.34375 C -8.265625 -0.675781 -8.25 -1.003906 -8.25 -1.328125 C -8.25 -2.429688 -8.328125 -3.359375 -8.484375 -4.109375 L -7.328125 -4.109375 C -8.128906 -4.585938 -8.53125 -5.4375 -8.53125 -6.65625 Z M -8.53125 -6.65625 "/></g></g></g><g fill="#000000" fill-opacity="1"><g transform="translate(141.761275, 243.079872)"><g><path d="M -8.53125 -6.65625 C -8.53125 -7.507812 -8.316406 -8.113281 -7.890625 -8.46875 C -7.691406 -8.625 -7.429688 -8.738281 -7.109375 -8.8125 C -6.785156 -8.882812 -6.359375 -8.921875 -5.828125 -8.921875 L -1.484375 -8.921875 C -1.046875 -8.921875 -0.742188 -8.988281 -0.578125 -9.125 C -0.421875 -9.257812 -0.34375 -9.492188 -0.34375 -9.828125 L 0 -9.828125 C -0.0390625 -8.671875 -0.0625 -7.921875 -0.0625 -7.578125 C -0.0625 -7.222656 -0.0390625 -6.46875 0 -5.3125 L -0.34375 -5.3125 C -0.34375 -5.59375 -0.421875 -5.785156 -0.578125 -5.890625 C -0.742188 -5.992188 -1.046875 -6.046875 -1.484375 -6.046875 L -6.6875 -6.046875 C -7.03125 -6.046875 -7.285156 -5.984375 -7.453125 -5.859375 C -7.617188 -5.742188 -7.703125 -5.546875 -7.703125 -5.265625 C -7.703125 -4.953125 -7.59375 -4.679688 -7.375 -4.453125 C -7.15625 -4.222656 -6.878906 -4.109375 -6.546875 -4.109375 L -1.484375 -4.109375 C -1.046875 -4.109375 -0.742188 -4.160156 -0.578125 -4.265625 C -0.421875 -4.378906 -0.34375 -4.570312 -0.34375 -4.84375 L 0 -4.84375 C -0.0390625 -3.78125 -0.0625 -3.078125 -0.0625 -2.734375 C -0.0625 -2.367188 -0.0390625 -1.570312 0 -0.34375 L -0.34375 -0.34375 C -0.34375 -0.664062 -0.421875 -0.894531 -0.578125 -1.03125 C -0.742188 -1.164062 -1.046875 -1.234375 -1.484375 -1.234375 L -6.5625 -1.234375 C -7.050781 -1.234375 -7.40625 -1.164062 -7.625 -1.03125 C -7.851562 -0.894531 -7.96875 -0.664062 -7.96875 -0.34375 L -8.296875 -0.34375 C -8.265625 -0.675781 -8.25 -1.003906 -8.25 -1.328125 C -8.25 -2.429688 -8.328125 -3.359375 -8.484375 -4.109375 L -7.328125 -4.109375 C -8.128906 -4.585938 -8.53125 -5.4375 -8.53125 -6.65625 Z M -8.53125 -6.65625 "/></g></g></g><g fill="#000000" fill-opacity="1"><g transform="translate(141.761275, 233.082269)"><g><path d="M -1.515625 -5.328125 C -1.515625 -6.109375 -1.875 -6.753906 -2.59375 -7.265625 L -2.5 -7.53125 C -1.75 -7.300781 -1.109375 -6.90625 -0.578125 -6.34375 C -0.046875 -5.78125 0.21875 -5.0625 0.21875 -4.1875 C 0.21875 -3.070312 -0.125 -2.175781 -0.8125 -1.5 C -1.507812 -0.832031 -2.617188 -0.5 -4.140625 -0.5 C -5.609375 -0.5 -6.707031 -0.875 -7.4375 -1.625 C -8.164062 -2.375 -8.53125 -3.367188 -8.53125 -4.609375 C -8.53125 -6.617188 -7.332031 -7.625 -4.9375 -7.625 L -4.9375 -3.5 C -4.8125 -3.488281 -4.625 -3.484375 -4.375 -3.484375 C -3.34375 -3.484375 -2.609375 -3.660156 -2.171875 -4.015625 C -1.734375 -4.378906 -1.515625 -4.816406 -1.515625 -5.328125 Z M -8.15625 -4.5 C -8.15625 -3.894531 -7.1875 -3.539062 -5.25 -3.4375 L -5.25 -5.296875 C -6.101562 -5.304688 -6.800781 -5.242188 -7.34375 -5.109375 C -7.882812 -4.972656 -8.15625 -4.769531 -8.15625 -4.5 Z M -8.15625 -4.5 "/></g></g></g><g fill="#000000" fill-opacity="1"><g transform="translate(141.761275, 225.036203)"><g><path d="M -1.765625 -8.59375 C -1.273438 -8.59375 -0.914062 -8.65625 -0.6875 -8.78125 C -0.46875 -8.914062 -0.359375 -9.148438 -0.359375 -9.484375 L -0.015625 -9.484375 C -0.046875 -9.148438 -0.0625 -8.820312 -0.0625 -8.5 C -0.0625 -7.382812 0.0078125 -6.457031 0.15625 -5.71875 L -0.96875 -5.71875 C -0.5625 -5.488281 -0.257812 -5.222656 -0.0625 -4.921875 C 0.125 -4.617188 0.21875 -4.234375 0.21875 -3.765625 C 0.21875 -2.773438 -0.144531 -1.984375 -0.875 -1.390625 C -1.601562 -0.796875 -2.710938 -0.5 -4.203125 -0.5 C -5.628906 -0.5 -6.707031 -0.816406 -7.4375 -1.453125 C -8.164062 -2.085938 -8.53125 -2.953125 -8.53125 -4.046875 C -8.53125 -4.734375 -8.394531 -5.289062 -8.125 -5.71875 L -10.59375 -5.71875 C -11.082031 -5.71875 -11.4375 -5.648438 -11.65625 -5.515625 C -11.882812 -5.378906 -12 -5.144531 -12 -4.8125 L -12.34375 -4.8125 C -12.300781 -5.144531 -12.28125 -5.476562 -12.28125 -5.8125 C -12.28125 -6.914062 -12.359375 -7.84375 -12.515625 -8.59375 Z M -0.609375 -4.5625 C -0.609375 -4.875 -0.71875 -5.144531 -0.9375 -5.375 C -1.15625 -5.601562 -1.429688 -5.71875 -1.765625 -5.71875 L -7.796875 -5.71875 C -7.929688 -5.476562 -8 -5.222656 -8 -4.953125 C -8 -4.453125 -7.679688 -4.082031 -7.046875 -3.84375 C -6.410156 -3.601562 -5.445312 -3.484375 -4.15625 -3.484375 C -2.84375 -3.484375 -1.921875 -3.578125 -1.390625 -3.765625 C -0.867188 -3.960938 -0.609375 -4.226562 -0.609375 -4.5625 Z M -0.609375 -4.5625 "/></g></g></g><g fill="#000000" fill-opacity="1"><g transform="translate(141.761275, 215.294546)"><g><path d="M -8.234375 -7.171875 C -8.234375 -7.773438 -8.253906 -8.1875 -8.296875 -8.40625 L -7.96875 -8.40625 C -7.894531 -8.175781 -7.738281 -7.96875 -7.5 -7.78125 C -7.269531 -7.59375 -6.910156 -7.421875 -6.421875 -7.265625 L -0.46875 -5.265625 L 1.46875 -4.59375 C 2.019531 -4.394531 2.40625 -4.160156 2.625 -3.890625 C 2.882812 -3.554688 3.015625 -3.0625 3.015625 -2.40625 C 3.015625 -1.863281 2.882812 -1.363281 2.625 -0.90625 C 2.375 -0.445312 2 -0.21875 1.5 -0.21875 C 1.125 -0.21875 0.820312 -0.363281 0.59375 -0.65625 C 0.375 -0.945312 0.265625 -1.328125 0.265625 -1.796875 C 0.265625 -2.242188 0.363281 -2.59375 0.5625 -2.84375 C 0.769531 -3.101562 1.066406 -3.234375 1.453125 -3.234375 C 1.710938 -3.234375 1.957031 -3.144531 2.1875 -2.96875 C 2.414062 -2.789062 2.582031 -2.53125 2.6875 -2.1875 C 2.707031 -2.300781 2.71875 -2.484375 2.71875 -2.734375 C 2.71875 -3.472656 2.289062 -3.976562 1.4375 -4.25 L 1.171875 -4.34375 L -7.078125 -0.609375 C -7.429688 -0.453125 -7.664062 -0.296875 -7.78125 -0.140625 C -7.90625 0.015625 -7.96875 0.164062 -7.96875 0.3125 L -8.296875 0.3125 C -8.234375 -0.53125 -8.203125 -1.394531 -8.203125 -2.28125 C -8.203125 -2.976562 -8.234375 -3.753906 -8.296875 -4.609375 L -7.96875 -4.609375 C -7.96875 -4.296875 -7.945312 -4.054688 -7.90625 -3.890625 C -7.863281 -3.722656 -7.765625 -3.640625 -7.609375 -3.640625 C -7.523438 -3.640625 -7.441406 -3.664062 -7.359375 -3.71875 L -2.671875 -5.6875 L -4.71875 -6.359375 C -5.332031 -6.554688 -5.878906 -6.65625 -6.359375 -6.65625 C -6.859375 -6.65625 -7.242188 -6.546875 -7.515625 -6.328125 C -7.796875 -6.117188 -7.945312 -5.835938 -7.96875 -5.484375 L -8.296875 -5.484375 C -8.253906 -5.878906 -8.234375 -6.441406 -8.234375 -7.171875 Z M -8.234375 -7.171875 "/></g></g></g><g fill="#000000" fill-opacity="1"><g transform="translate(141.761275, 206.832579)"><g/></g></g><g fill="#000000" fill-opacity="1"><g transform="translate(141.761275, 203.265433)"><g><path d="M -4.578125 -4.828125 L -1.859375 -4.828125 C -1.410156 -4.828125 -1.082031 -4.875 -0.875 -4.96875 C -0.675781 -5.0625 -0.539062 -5.226562 -0.46875 -5.46875 C -0.40625 -5.707031 -0.375 -6.085938 -0.375 -6.609375 L 0 -6.609375 C -0.03125 -5.171875 -0.046875 -4.070312 -0.046875 -3.3125 C -0.046875 -2.8125 -0.0351562 -2.113281 -0.015625 -1.21875 L 0 -0.453125 L -0.3125 -0.453125 C -0.34375 -0.785156 -0.390625 -1.03125 -0.453125 -1.1875 C -0.515625 -1.34375 -0.632812 -1.445312 -0.8125 -1.5 C -1 -1.550781 -1.296875 -1.578125 -1.703125 -1.578125 L -9.625 -1.578125 C -10.03125 -1.578125 -10.320312 -1.546875 -10.5 -1.484375 C -10.6875 -1.429688 -10.8125 -1.328125 -10.875 -1.171875 C -10.9375 -1.023438 -10.984375 -0.785156 -11.015625 -0.453125 L -11.328125 -0.453125 C -11.296875 -1.054688 -11.28125 -1.972656 -11.28125 -3.203125 L -11.296875 -5.046875 C -11.304688 -5.253906 -11.3125 -5.5 -11.3125 -5.78125 C -11.3125 -7.351562 -11.023438 -8.546875 -10.453125 -9.359375 C -9.878906 -10.179688 -9.113281 -10.59375 -8.15625 -10.59375 C -7.570312 -10.59375 -7.007812 -10.429688 -6.46875 -10.109375 C -5.925781 -9.785156 -5.472656 -9.238281 -5.109375 -8.46875 C -4.753906 -7.707031 -4.578125 -6.691406 -4.578125 -5.421875 Z M -11.015625 -5.703125 C -11.015625 -5.453125 -10.972656 -5.265625 -10.890625 -5.140625 C -10.816406 -5.015625 -10.679688 -4.929688 -10.484375 -4.890625 C -10.296875 -4.847656 -10.007812 -4.828125 -9.625 -4.828125 L -4.890625 -4.828125 L -4.890625 -5.265625 C -4.890625 -6.015625 -5.164062 -6.53125 -5.71875 -6.8125 C -6.28125 -7.09375 -7.035156 -7.234375 -7.984375 -7.234375 C -9.015625 -7.234375 -9.773438 -7.113281 -10.265625 -6.875 C -10.765625 -6.644531 -11.015625 -6.253906 -11.015625 -5.703125 Z M -11.015625 -5.703125 "/></g></g></g><g fill="#000000" fill-opacity="1"><g transform="translate(141.761275, 192.42004)"><g><path d="M -8.53125 -6.171875 C -8.53125 -6.691406 -8.367188 -7.066406 -8.046875 -7.296875 C -7.722656 -7.523438 -7.34375 -7.640625 -6.90625 -7.640625 C -6.425781 -7.640625 -6.046875 -7.503906 -5.765625 -7.234375 C -5.484375 -6.960938 -5.34375 -6.609375 -5.34375 -6.171875 C -5.34375 -5.710938 -5.445312 -5.359375 -5.65625 -5.109375 C -5.863281 -4.867188 -6.144531 -4.75 -6.5 -4.75 C -7.125 -4.75 -7.617188 -5.019531 -7.984375 -5.5625 C -7.984375 -5.375 -7.945312 -5.207031 -7.875 -5.0625 C -7.757812 -4.789062 -7.566406 -4.5625 -7.296875 -4.375 C -7.035156 -4.195312 -6.753906 -4.109375 -6.453125 -4.109375 L -1.640625 -4.109375 C -1.140625 -4.109375 -0.796875 -4.210938 -0.609375 -4.421875 C -0.429688 -4.628906 -0.34375 -4.984375 -0.34375 -5.484375 L 0 -5.484375 C 0 -5.347656 -0.00390625 -5.234375 -0.015625 -5.140625 C -0.046875 -4.015625 -0.0625 -3.265625 -0.0625 -2.890625 C -0.0625 -2.566406 -0.046875 -1.828125 -0.015625 -0.671875 C -0.00390625 -0.585938 0 -0.476562 0 -0.34375 L -0.34375 -0.34375 C -0.34375 -0.664062 -0.421875 -0.894531 -0.578125 -1.03125 C -0.742188 -1.164062 -1.046875 -1.234375 -1.484375 -1.234375 L -6.5625 -1.234375 C -7.050781 -1.234375 -7.40625 -1.164062 -7.625 -1.03125 C -7.851562 -0.894531 -7.96875 -0.664062 -7.96875 -0.34375 L -8.296875 -0.34375 C -8.265625 -0.675781 -8.25 -1.003906 -8.25 -1.328125 C -8.25 -2.429688 -8.328125 -3.359375 -8.484375 -4.109375 L -7.328125 -4.109375 C -8.128906 -4.515625 -8.53125 -5.203125 -8.53125 -6.171875 Z M -8.53125 -6.171875 "/></g></g></g><g fill="#000000" fill-opacity="1"><g transform="translate(141.761275, 184.725891)"><g><path d="M -8.53125 -4.609375 C -8.53125 -5.921875 -8.1875 -6.929688 -7.5 -7.640625 C -6.8125 -8.359375 -5.691406 -8.71875 -4.140625 -8.71875 C -2.597656 -8.71875 -1.484375 -8.359375 -0.796875 -7.640625 C -0.117188 -6.929688 0.21875 -5.921875 0.21875 -4.609375 C 0.21875 -3.296875 -0.117188 -2.28125 -0.796875 -1.5625 C -1.484375 -0.851562 -2.597656 -0.5 -4.140625 -0.5 C -5.691406 -0.5 -6.8125 -0.851562 -7.5 -1.5625 C -8.1875 -2.28125 -8.53125 -3.296875 -8.53125 -4.609375 Z M -8.203125 -4.609375 C -8.203125 -4.265625 -7.863281 -3.988281 -7.1875 -3.78125 C -6.519531 -3.582031 -5.503906 -3.484375 -4.140625 -3.484375 C -2.773438 -3.484375 -1.757812 -3.582031 -1.09375 -3.78125 C -0.425781 -3.988281 -0.09375 -4.265625 -0.09375 -4.609375 C -0.09375 -4.953125 -0.425781 -5.222656 -1.09375 -5.421875 C -1.757812 -5.628906 -2.773438 -5.734375 -4.140625 -5.734375 C -5.503906 -5.734375 -6.519531 -5.628906 -7.1875 -5.421875 C -7.863281 -5.222656 -8.203125 -4.953125 -8.203125 -4.609375 Z M -8.203125 -4.609375 "/></g></g></g><g fill="#000000" fill-opacity="1"><g transform="translate(141.761275, 175.512105)"><g><path d="M -1.765625 -8.59375 C -1.273438 -8.59375 -0.914062 -8.65625 -0.6875 -8.78125 C -0.46875 -8.914062 -0.359375 -9.148438 -0.359375 -9.484375 L -0.015625 -9.484375 C -0.046875 -9.148438 -0.0625 -8.820312 -0.0625 -8.5 C -0.0625 -7.382812 0.0078125 -6.457031 0.15625 -5.71875 L -0.96875 -5.71875 C -0.5625 -5.488281 -0.257812 -5.222656 -0.0625 -4.921875 C 0.125 -4.617188 0.21875 -4.234375 0.21875 -3.765625 C 0.21875 -2.773438 -0.144531 -1.984375 -0.875 -1.390625 C -1.601562 -0.796875 -2.710938 -0.5 -4.203125 -0.5 C -5.628906 -0.5 -6.707031 -0.816406 -7.4375 -1.453125 C -8.164062 -2.085938 -8.53125 -2.953125 -8.53125 -4.046875 C -8.53125 -4.734375 -8.394531 -5.289062 -8.125 -5.71875 L -10.59375 -5.71875 C -11.082031 -5.71875 -11.4375 -5.648438 -11.65625 -5.515625 C -11.882812 -5.378906 -12 -5.144531 -12 -4.8125 L -12.34375 -4.8125 C -12.300781 -5.144531 -12.28125 -5.476562 -12.28125 -5.8125 C -12.28125 -6.914062 -12.359375 -7.84375 -12.515625 -8.59375 Z M -0.609375 -4.5625 C -0.609375 -4.875 -0.71875 -5.144531 -0.9375 -5.375 C -1.15625 -5.601562 -1.429688 -5.71875 -1.765625 -5.71875 L -7.796875 -5.71875 C -7.929688 -5.476562 -8 -5.222656 -8 -4.953125 C -8 -4.453125 -7.679688 -4.082031 -7.046875 -3.84375 C -6.410156 -3.601562 -5.445312 -3.484375 -4.15625 -3.484375 C -2.84375 -3.484375 -1.921875 -3.578125 -1.390625 -3.765625 C -0.867188 -3.960938 -0.609375 -4.226562 -0.609375 -4.5625 Z M -0.609375 -4.5625 "/></g></g></g><g fill="#000000" fill-opacity="1"><g transform="translate(141.761275, 165.770448)"><g><path d="M -1.75 -8.765625 C -1.257812 -8.765625 -0.898438 -8.832031 -0.671875 -8.96875 C -0.453125 -9.101562 -0.34375 -9.332031 -0.34375 -9.65625 L 0 -9.65625 C -0.03125 -9.332031 -0.046875 -9.003906 -0.046875 -8.671875 C -0.046875 -7.566406 0.0234375 -6.640625 0.171875 -5.890625 L -0.96875 -5.890625 C -0.175781 -5.410156 0.21875 -4.5625 0.21875 -3.34375 C 0.21875 -2.488281 0.00390625 -1.882812 -0.421875 -1.53125 C -0.609375 -1.375 -0.863281 -1.257812 -1.1875 -1.1875 C -1.519531 -1.113281 -1.953125 -1.078125 -2.484375 -1.078125 L -6.5625 -1.078125 C -7.050781 -1.078125 -7.40625 -1.007812 -7.625 -0.875 C -7.851562 -0.738281 -7.96875 -0.503906 -7.96875 -0.171875 L -8.296875 -0.171875 C -8.265625 -0.503906 -8.25 -0.835938 -8.25 -1.171875 C -8.25 -2.273438 -8.328125 -3.203125 -8.484375 -3.953125 L -1.609375 -3.953125 C -1.273438 -3.953125 -1.023438 -4.007812 -0.859375 -4.125 C -0.691406 -4.25 -0.609375 -4.453125 -0.609375 -4.734375 C -0.609375 -5.046875 -0.71875 -5.316406 -0.9375 -5.546875 C -1.15625 -5.773438 -1.429688 -5.890625 -1.765625 -5.890625 L -6.5625 -5.890625 C -7.050781 -5.890625 -7.40625 -5.820312 -7.625 -5.6875 C -7.851562 -5.550781 -7.96875 -5.316406 -7.96875 -4.984375 L -8.296875 -4.984375 C -8.265625 -5.316406 -8.25 -5.648438 -8.25 -5.984375 C -8.25 -7.085938 -8.328125 -8.015625 -8.484375 -8.765625 Z M -1.75 -8.765625 "/></g></g></g><g fill="#000000" fill-opacity="1"><g transform="translate(141.761275, 155.820841)"><g><path d="M -8.53125 -4.59375 C -8.53125 -5.03125 -8.484375 -5.429688 -8.390625 -5.796875 C -8.296875 -6.171875 -8.179688 -6.472656 -8.046875 -6.703125 C -7.878906 -7.003906 -7.648438 -7.238281 -7.359375 -7.40625 C -7.066406 -7.570312 -6.742188 -7.65625 -6.390625 -7.65625 C -5.941406 -7.65625 -5.566406 -7.507812 -5.265625 -7.21875 C -4.972656 -6.9375 -4.828125 -6.570312 -4.828125 -6.125 C -4.828125 -5.664062 -4.957031 -5.304688 -5.21875 -5.046875 C -5.476562 -4.785156 -5.828125 -4.65625 -6.265625 -4.65625 C -6.648438 -4.65625 -6.988281 -4.78125 -7.28125 -5.03125 C -7.582031 -5.28125 -7.78125 -5.59375 -7.875 -5.96875 C -8 -5.8125 -8.0625 -5.597656 -8.0625 -5.328125 C -8.0625 -4.640625 -7.695312 -4.15625 -6.96875 -3.875 C -6.238281 -3.601562 -5.375 -3.46875 -4.375 -3.46875 C -3.34375 -3.46875 -2.609375 -3.660156 -2.171875 -4.046875 C -1.734375 -4.429688 -1.515625 -4.90625 -1.515625 -5.46875 C -1.515625 -6.25 -1.875 -6.894531 -2.59375 -7.40625 L -2.5 -7.6875 C -1.75 -7.445312 -1.109375 -7.046875 -0.578125 -6.484375 C -0.046875 -5.921875 0.21875 -5.207031 0.21875 -4.34375 C 0.21875 -3.175781 -0.125 -2.238281 -0.8125 -1.53125 C -1.507812 -0.832031 -2.617188 -0.484375 -4.140625 -0.484375 C -5.609375 -0.484375 -6.707031 -0.859375 -7.4375 -1.609375 C -8.164062 -2.359375 -8.53125 -3.351562 -8.53125 -4.59375 Z M -8.53125 -4.59375 "/></g></g></g><g fill="#000000" fill-opacity="1"><g transform="translate(141.761275, 147.774775)"><g><path d="M -8.296875 -4.03125 L -8.296875 -5.59375 L -7.984375 -5.59375 L -7.984375 -4.03125 L -1.34375 -4.03125 C -1.132812 -4.03125 -0.984375 -4.066406 -0.890625 -4.140625 C -0.804688 -4.210938 -0.765625 -4.335938 -0.765625 -4.515625 C -0.765625 -4.640625 -0.800781 -4.78125 -0.875 -4.9375 C -0.945312 -5.101562 -1.066406 -5.25 -1.234375 -5.375 L -1.046875 -5.609375 C -0.203125 -5.117188 0.21875 -4.363281 0.21875 -3.34375 C 0.21875 -2.601562 0.0390625 -2.054688 -0.3125 -1.703125 C -0.539062 -1.472656 -0.816406 -1.320312 -1.140625 -1.25 C -1.472656 -1.1875 -1.941406 -1.15625 -2.546875 -1.15625 L -7.984375 -1.15625 L -7.984375 0.0625 L -8.296875 0.0625 L -8.296875 -1.15625 L -10.1875 -1.15625 C -10.1875 -1.726562 -10.242188 -2.242188 -10.359375 -2.703125 C -10.472656 -3.171875 -10.648438 -3.613281 -10.890625 -4.03125 Z M -8.296875 -4.03125 "/></g></g></g><g fill="#000000" fill-opacity="1"><g transform="translate(141.761275, 142.17612)"><g><path d="M -12.515625 -2.578125 C -12.515625 -3.128906 -12.394531 -3.554688 -12.15625 -3.859375 C -11.925781 -4.160156 -11.585938 -4.3125 -11.140625 -4.3125 C -10.691406 -4.3125 -10.347656 -4.160156 -10.109375 -3.859375 C -9.878906 -3.554688 -9.765625 -3.128906 -9.765625 -2.578125 C -9.765625 -2.003906 -9.878906 -1.566406 -10.109375 -1.265625 C -10.347656 -0.972656 -10.691406 -0.828125 -11.140625 -0.828125 C -11.585938 -0.828125 -11.925781 -0.972656 -12.15625 -1.265625 C -12.394531 -1.566406 -12.515625 -2.003906 -12.515625 -2.578125 Z M -1.484375 -4.109375 C -1.046875 -4.109375 -0.742188 -4.175781 -0.578125 -4.3125 C -0.421875 -4.445312 -0.34375 -4.679688 -0.34375 -5.015625 L 0 -5.015625 C -0.0390625 -3.859375 -0.0625 -3.097656 -0.0625 -2.734375 C -0.0625 -2.367188 -0.0390625 -1.570312 0 -0.34375 L -0.34375 -0.34375 C -0.34375 -0.664062 -0.421875 -0.894531 -0.578125 -1.03125 C -0.742188 -1.164062 -1.046875 -1.234375 -1.484375 -1.234375 L -6.5625 -1.234375 C -7.050781 -1.234375 -7.40625 -1.164062 -7.625 -1.03125 C -7.851562 -0.894531 -7.96875 -0.664062 -7.96875 -0.34375 L -8.296875 -0.34375 C -8.265625 -0.675781 -8.25 -1.003906 -8.25 -1.328125 C -8.25 -2.429688 -8.328125 -3.359375 -8.484375 -4.109375 Z M -1.484375 -4.109375 "/></g></g></g><g fill="#000000" fill-opacity="1"><g transform="translate(141.761275, 136.897384)"><g><path d="M -8.53125 -4.609375 C -8.53125 -5.921875 -8.1875 -6.929688 -7.5 -7.640625 C -6.8125 -8.359375 -5.691406 -8.71875 -4.140625 -8.71875 C -2.597656 -8.71875 -1.484375 -8.359375 -0.796875 -7.640625 C -0.117188 -6.929688 0.21875 -5.921875 0.21875 -4.609375 C 0.21875 -3.296875 -0.117188 -2.28125 -0.796875 -1.5625 C -1.484375 -0.851562 -2.597656 -0.5 -4.140625 -0.5 C -5.691406 -0.5 -6.8125 -0.851562 -7.5 -1.5625 C -8.1875 -2.28125 -8.53125 -3.296875 -8.53125 -4.609375 Z M -8.203125 -4.609375 C -8.203125 -4.265625 -7.863281 -3.988281 -7.1875 -3.78125 C -6.519531 -3.582031 -5.503906 -3.484375 -4.140625 -3.484375 C -2.773438 -3.484375 -1.757812 -3.582031 -1.09375 -3.78125 C -0.425781 -3.988281 -0.09375 -4.265625 -0.09375 -4.609375 C -0.09375 -4.953125 -0.425781 -5.222656 -1.09375 -5.421875 C -1.757812 -5.628906 -2.773438 -5.734375 -4.140625 -5.734375 C -5.503906 -5.734375 -6.519531 -5.628906 -7.1875 -5.421875 C -7.863281 -5.222656 -8.203125 -4.953125 -8.203125 -4.609375 Z M -8.203125 -4.609375 "/></g></g></g><g fill="#000000" fill-opacity="1"><g transform="translate(141.761275, 127.683598)"><g><path d="M -8.53125 -6.65625 C -8.53125 -7.507812 -8.316406 -8.113281 -7.890625 -8.46875 C -7.691406 -8.625 -7.429688 -8.738281 -7.109375 -8.8125 C -6.785156 -8.882812 -6.359375 -8.921875 -5.828125 -8.921875 L -1.484375 -8.921875 C -1.046875 -8.921875 -0.742188 -8.988281 -0.578125 -9.125 C -0.421875 -9.257812 -0.34375 -9.492188 -0.34375 -9.828125 L 0 -9.828125 C -0.0390625 -8.671875 -0.0625 -7.921875 -0.0625 -7.578125 C -0.0625 -7.222656 -0.0390625 -6.46875 0 -5.3125 L -0.34375 -5.3125 C -0.34375 -5.59375 -0.421875 -5.785156 -0.578125 -5.890625 C -0.742188 -5.992188 -1.046875 -6.046875 -1.484375 -6.046875 L -6.6875 -6.046875 C -7.03125 -6.046875 -7.285156 -5.984375 -7.453125 -5.859375 C -7.617188 -5.742188 -7.703125 -5.546875 -7.703125 -5.265625 C -7.703125 -4.953125 -7.59375 -4.679688 -7.375 -4.453125 C -7.15625 -4.222656 -6.878906 -4.109375 -6.546875 -4.109375 L -1.484375 -4.109375 C -1.046875 -4.109375 -0.742188 -4.160156 -0.578125 -4.265625 C -0.421875 -4.378906 -0.34375 -4.570312 -0.34375 -4.84375 L 0 -4.84375 C -0.0390625 -3.78125 -0.0625 -3.078125 -0.0625 -2.734375 C -0.0625 -2.367188 -0.0390625 -1.570312 0 -0.34375 L -0.34375 -0.34375 C -0.34375 -0.664062 -0.421875 -0.894531 -0.578125 -1.03125 C -0.742188 -1.164062 -1.046875 -1.234375 -1.484375 -1.234375 L -6.5625 -1.234375 C -7.050781 -1.234375 -7.40625 -1.164062 -7.625 -1.03125 C -7.851562 -0.894531 -7.96875 -0.664062 -7.96875 -0.34375 L -8.296875 -0.34375 C -8.265625 -0.675781 -8.25 -1.003906 -8.25 -1.328125 C -8.25 -2.429688 -8.328125 -3.359375 -8.484375 -4.109375 L -7.328125 -4.109375 C -8.128906 -4.585938 -8.53125 -5.4375 -8.53125 -6.65625 Z M -8.53125 -6.65625 "/></g></g></g><g fill="#000000" fill-opacity="1"><g transform="translate(141.761275, 117.685994)"><g><path d="M -8.53125 -3.703125 C -8.53125 -4.109375 -8.484375 -4.492188 -8.390625 -4.859375 C -8.296875 -5.234375 -8.195312 -5.519531 -8.09375 -5.71875 C -8.03125 -5.832031 -8 -5.925781 -8 -6 C -8 -6.226562 -8.171875 -6.363281 -8.515625 -6.40625 L -8.515625 -6.71875 C -7.960938 -6.675781 -7 -6.65625 -5.625 -6.65625 L -5.625 -6.34375 C -6.332031 -6.25 -6.925781 -6.046875 -7.40625 -5.734375 C -7.894531 -5.421875 -8.140625 -4.96875 -8.140625 -4.375 C -8.140625 -4.101562 -8.054688 -3.875 -7.890625 -3.6875 C -7.734375 -3.507812 -7.519531 -3.421875 -7.25 -3.421875 C -6.894531 -3.421875 -6.582031 -3.535156 -6.3125 -3.765625 C -6.039062 -4.003906 -5.707031 -4.375 -5.3125 -4.875 C -5.300781 -4.894531 -5.175781 -5.050781 -4.9375 -5.34375 C -4.445312 -5.9375 -4.015625 -6.375 -3.640625 -6.65625 C -3.265625 -6.9375 -2.796875 -7.078125 -2.234375 -7.078125 C -1.765625 -7.078125 -1.34375 -6.929688 -0.96875 -6.640625 C -0.59375 -6.347656 -0.300781 -5.953125 -0.09375 -5.453125 C 0.113281 -4.960938 0.21875 -4.425781 0.21875 -3.84375 C 0.21875 -3.164062 0.0859375 -2.613281 -0.171875 -2.1875 C -0.265625 -2.007812 -0.332031 -1.859375 -0.375 -1.734375 C -0.425781 -1.617188 -0.453125 -1.503906 -0.453125 -1.390625 C -0.453125 -1.191406 -0.265625 -1.039062 0.109375 -0.9375 L 0.109375 -0.625 C -0.492188 -0.664062 -1.5625 -0.6875 -3.09375 -0.6875 L -3.09375 -1.015625 C -2.21875 -1.109375 -1.507812 -1.335938 -0.96875 -1.703125 C -0.4375 -2.078125 -0.171875 -2.550781 -0.171875 -3.125 C -0.171875 -3.382812 -0.242188 -3.601562 -0.390625 -3.78125 C -0.546875 -3.957031 -0.769531 -4.046875 -1.0625 -4.046875 C -1.351562 -4.046875 -1.613281 -3.984375 -1.84375 -3.859375 C -2.082031 -3.742188 -2.296875 -3.597656 -2.484375 -3.421875 C -2.671875 -3.242188 -2.941406 -2.957031 -3.296875 -2.5625 C -3.710938 -2.113281 -4.039062 -1.769531 -4.28125 -1.53125 C -4.53125 -1.300781 -4.816406 -1.101562 -5.140625 -0.9375 C -5.460938 -0.769531 -5.820312 -0.6875 -6.21875 -0.6875 C -6.675781 -0.6875 -7.082031 -0.820312 -7.4375 -1.09375 C -7.789062 -1.375 -8.0625 -1.742188 -8.25 -2.203125 C -8.4375 -2.660156 -8.53125 -3.160156 -8.53125 -3.703125 Z M -8.53125 -3.703125 "/></g></g></g></svg>